<svg width="32" height="32" viewBox="0 0 32 32" fill="none" xmlns="http://www.w3.org/2000/svg">
  <rect width="32" height="32" rx="6" fill="#EDE9FE"/>
  <path d="M16 6C10.4772 6 6 10.4772 6 16C6 21.5228 10.4772 26 16 26C21.5228 26 26 21.5228 26 16C26 10.4772 21.5228 6 16 6ZM8.4 16C8.4 15.0718 8.59698 14.1883 8.96099 13.3864L10.8 16L11.6 19.2L14 20.8L16 22.4V24C11.699 24 8.4 20.4183 8.4 16ZM21.6557 20.0942C21.0006 18.2982 19.2505 17.2 17.6 17.2H16.8V14.8C16.8 14.3582 16.4418 14 16 14H12V12.4H13.6C14.0418 12.4 14.4 12.0418 14.4 11.6V10H16.8C17.6837 10 18.4 9.2837 18.4 8.4V8.16795C21.3346 9.11428 23.6 12.2448 23.6 16C23.6 17.4233 23.2406 18.7572 22.6089 19.9147L21.6557 20.0942Z" fill="#8B5CF6"/>
</svg> 