<svg width="128" height="128" viewBox="0 0 128 128" fill="none" xmlns="http://www.w3.org/2000/svg">
  <rect width="128" height="128" rx="16" fill="#F3F4F6"/>
  <path d="M64 40C50.7452 40 40 50.7452 40 64C40 77.2548 50.7452 88 64 88C77.2548 88 88 77.2548 88 64C88 50.7452 77.2548 40 64 40ZM64 84C52.9543 84 44 75.0457 44 64C44 52.9543 52.9543 44 64 44C75.0457 44 84 52.9543 84 64C84 75.0457 75.0457 84 64 84Z" fill="#9CA3AF"/>
  <path d="M64 52C61.7909 52 60 53.7909 60 56C60 58.2091 61.7909 60 64 60C66.2091 60 68 58.2091 68 56C68 53.7909 66.2091 52 64 52Z" fill="#9CA3AF"/>
  <path d="M60 68C60 66.8954 60.8954 66 62 66H66C67.1046 66 68 66.8954 68 68V76C68 77.1046 67.1046 78 66 78H62C60.8954 78 60 77.1046 60 76V68Z" fill="#9CA3AF"/>
</svg> 