<svg width="40" height="40" viewBox="0 0 40 40" fill="none" xmlns="http://www.w3.org/2000/svg">
  <rect width="40" height="40" rx="8" fill="#F3F4F6"/>
  <path d="M20 11C15.0294 11 11 15.0294 11 20C11 24.9706 15.0294 29 20 29C24.9706 29 29 24.9706 29 20C29 15.0294 24.9706 11 20 11ZM14.5 20C14.5 18.067 15.7939 16.4087 17.5 15.8762V24.1238C15.7939 23.5913 14.5 21.933 14.5 20ZM20 25.5C19.3117 25.5 18.6519 25.3506 18.0625 25.0889V14.9111C18.6519 14.6494 19.3117 14.5 20 14.5C20.8698 14.5 21.6849 14.7228 22.3858 15.1156V24.8844C21.6849 25.2772 20.8698 25.5 20 25.5ZM22.5 24.1238V15.8762C24.2061 16.4087 25.5 18.067 25.5 20C25.5 21.933 24.2061 23.5913 22.5 24.1238Z" fill="#9CA3AF"/>
</svg> 